<svg xmlns="http://www.w3.org/2000/svg" viewBox="0 0 20 20">
  <path fill="#2378cd" d="m14.479 8.923 2.277-2.143.013-.013a2.5 2.5 0 1 0-3.536-3.536c0 .005-.009.009-.014.014L11.078 5.52l-6.484-2.36a.625.625 0 0 0-.655.146L2.062 5.182a.625.625 0 0 0 .096.962L7.149 9.47l-1.158 1.154H4.375a.625.625 0 0 0-.441.183l-1.875 1.875a.625.625 0 0 0 .207 1.022l2.876 1.15 1.149 2.872.004.012a.625.625 0 0 0 1.03.193l1.865-1.866a.624.624 0 0 0 .185-.441v-1.616l1.153-1.154 3.327 4.992a.626.626 0 0 0 .962.095l1.875-1.875a.624.624 0 0 0 .145-.655l-2.358-6.49Zm-.006 7.596-3.327-4.99a.624.624 0 0 0-.459-.279h-.061a.624.624 0 0 0-.442.184l-1.875 1.875a.625.625 0 0 0-.184.441v1.616l-1.021 1.021-.899-2.246a.625.625 0 0 0-.346-.347l-2.245-.898 1.02-1.021H6.25a.624.624 0 0 0 .442-.183l1.875-1.875a.625.625 0 0 0-.095-.962l-4.99-3.328 1.054-1.054 6.502 2.364a.625.625 0 0 0 .668-.157l2.417-2.57a1.25 1.25 0 0 1 1.768 1.767l-2.568 2.417a.625.625 0 0 0-.157.668l2.364 6.502-1.057 1.055Z"/>
</svg>
