<svg xmlns="http://www.w3.org/2000/svg" viewBox="0 0 44 66.759">
  <path d="M43.243,1.375c-1-1.185-2.567-1.351-2.871-1.372C40.334,0.001,40.297,0,40.26,0H3.74C3.703,0,3.666,0.001,3.628,0.004  C3.325,0.025,1.757,0.19,0.757,1.376C0.179,2.061-0.076,2.929,0.02,3.888l5.813,58.3c-0.015,0.52,0.066,1.777,1.045,2.879  c0.999,1.123,2.556,1.692,4.628,1.692h20.988c2.073,0,3.631-0.569,4.629-1.692c0.979-1.102,1.061-2.359,1.046-2.879l5.813-58.3  C44.076,2.929,43.821,2.06,43.243,1.375 M3.818,3.221h36.357c0.257,0.035,0.545,0.153,0.599,0.218c0,0,0.011,0.037,0.002,0.13  l-0.894,8.96H4.118l-0.893-8.96C3.217,3.491,3.223,3.453,3.221,3.45C3.294,3.363,3.597,3.25,3.818,3.221 M34.952,61.989  c-0.015,0.142-0.023,0.193-0.002,0.323c-0.001,0.086-0.021,0.392-0.256,0.639c-0.361,0.379-1.143,0.588-2.2,0.588H11.506  c-1.057,0-1.838-0.209-2.199-0.588c-0.235-0.247-0.255-0.552-0.256-0.639c0.021-0.13,0.013-0.182-0.001-0.323L4.311,14.461H23.86  v1.248c0,0.534,0.433,0.966,0.967,0.966s0.966-0.433,0.966-0.966v-1.248h2.722v5.492c0,0.534,0.433,0.966,0.967,0.966  s0.966-0.433,0.966-0.966v-5.492h9.243L34.952,61.989z" fill="#2378cd"/>
</svg>
