<svg xmlns="http://www.w3.org/2000/svg" viewBox="0 0 74 74">
  <path d="M37,0C16.599,0,0,16.599,0,37s16.599,37,37,37s37-16.598,37-37S57.402,0,37,0 M37,70.096  C18.751,70.096,3.905,55.249,3.905,37C3.905,18.751,18.751,3.905,37,3.905c18.249,0,33.095,14.847,33.095,33.096  C70.096,55.249,55.249,70.096,37,70.096 M37,58.919c0.54,0,0.976,0.437,0.976,0.976v4.431c0,0.54-0.437,0.977-0.976,0.977  c-0.539,0-0.976-0.437-0.976-0.977v-4.431C36.024,59.355,36.461,58.919,37,58.919 M64.325,36.024c0.54,0,0.977,0.437,0.977,0.976  c0,0.539-0.437,0.976-0.977,0.976h-4.431c-0.539,0-0.976-0.437-0.976-0.976c0-0.54,0.437-0.976,0.976-0.976H64.325 M15.082,37  c0,0.539-0.438,0.976-0.977,0.976h-4.43c-0.539,0-0.976-0.437-0.976-0.976c0-0.54,0.437-0.976,0.976-0.976h4.43  C14.645,36.024,15.082,36.461,15.082,37 M26.398,16.685c0.27,0.467,0.11,1.064-0.357,1.333c-0.154,0.089-0.321,0.131-0.487,0.131  c-0.337,0-0.666-0.175-0.847-0.488l-2.215-3.837c-0.27-0.467-0.11-1.064,0.357-1.333c0.468-0.27,1.064-0.109,1.333,0.357  L26.398,16.685z M51.508,60.177c0.271,0.467,0.11,1.064-0.356,1.333c-0.154,0.089-0.322,0.132-0.487,0.132  c-0.338,0-0.666-0.176-0.847-0.488l-2.215-3.838c-0.27-0.467-0.109-1.063,0.357-1.333c0.468-0.27,1.063-0.109,1.333,0.357  L51.508,60.177z M56.829,26.529c-0.338,0-0.666-0.175-0.847-0.488c-0.27-0.467-0.109-1.064,0.357-1.333l3.837-2.215  c0.467-0.269,1.064-0.109,1.333,0.357c0.271,0.467,0.11,1.063-0.356,1.333l-3.838,2.215C57.162,26.487,56.994,26.529,56.829,26.529   M16.685,47.603c0.467-0.271,1.064-0.109,1.333,0.357c0.27,0.466,0.11,1.063-0.357,1.333l-3.837,2.215  c-0.154,0.089-0.321,0.132-0.487,0.132c-0.337,0-0.666-0.176-0.847-0.488c-0.27-0.467-0.109-1.064,0.357-1.334L16.685,47.603   M17.661,24.708c0.467,0.27,0.627,0.867,0.357,1.333c-0.181,0.313-0.509,0.488-0.846,0.488c-0.166,0-0.333-0.042-0.487-0.131  l-3.837-2.215c-0.467-0.27-0.627-0.867-0.357-1.333c0.27-0.466,0.867-0.627,1.333-0.357L17.661,24.708 M61.153,49.817  c0.467,0.27,0.627,0.867,0.356,1.334c-0.181,0.313-0.509,0.488-0.846,0.488c-0.166,0-0.333-0.043-0.487-0.132l-3.837-2.215  c-0.467-0.27-0.627-0.867-0.357-1.333c0.271-0.467,0.866-0.628,1.333-0.358L61.153,49.817 M26.041,55.982  c0.467,0.27,0.627,0.866,0.357,1.333l-2.215,3.838c-0.181,0.313-0.509,0.488-0.846,0.488c-0.166,0-0.333-0.043-0.487-0.132  c-0.467-0.27-0.626-0.866-0.357-1.333l2.215-3.837C24.978,55.873,25.575,55.713,26.041,55.982 M51.151,12.491  c0.467,0.27,0.627,0.866,0.356,1.333L37.846,37.488c-0.004,0.007-0.011,0.012-0.015,0.019c-0.041,0.067-0.088,0.131-0.144,0.186  c-0.007,0.006-0.014,0.01-0.021,0.016c-0.049,0.046-0.104,0.087-0.162,0.122c-0.02,0.013-0.04,0.023-0.061,0.034  c-0.05,0.025-0.102,0.046-0.155,0.063c-0.021,0.007-0.041,0.014-0.062,0.02c-0.071,0.017-0.145,0.028-0.22,0.028  c-0.003,0-0.005,0.001-0.008,0.001c-0.005,0-0.009-0.001-0.014-0.002c-0.073-0.001-0.143-0.011-0.211-0.027  c-0.021-0.005-0.042-0.013-0.063-0.02c-0.057-0.018-0.111-0.04-0.163-0.067c-0.012-0.006-0.024-0.008-0.037-0.015  c-0.009-0.005-0.017-0.013-0.026-0.019c-0.029-0.019-0.057-0.039-0.083-0.061c-0.024-0.019-0.049-0.037-0.071-0.058  c-0.023-0.021-0.042-0.045-0.063-0.068c-0.021-0.024-0.043-0.048-0.062-0.074c-0.018-0.025-0.033-0.052-0.048-0.079  c-0.016-0.027-0.031-0.054-0.044-0.083s-0.023-0.059-0.033-0.089c-0.01-0.03-0.021-0.059-0.028-0.09  c-0.007-0.029-0.011-0.059-0.015-0.089c-0.005-0.035-0.009-0.069-0.01-0.104c0-0.011-0.003-0.021-0.003-0.032V9.675  c0-0.539,0.437-0.976,0.976-0.976c0.54,0,0.976,0.437,0.976,0.976v23.682l11.841-20.509C50.088,12.381,50.684,12.221,51.151,12.491" fill="#2378cd"/>
</svg>
