<svg xmlns="http://www.w3.org/2000/svg" viewBox="0 0 74 62.568">
  <path d="M68.744,0H5.256C2.358,0,0,2.358,0,5.256v40.516c0,2.897,2.358,5.256,5.256,5.256h21.252c1.073,0,2.555,0.9,3.049,1.854  l3.831,7.385c0.733,1.412,1.918,2.251,3.252,2.3c0.041,0.001,0.082,0.002,0.123,0.002c1.287,0,2.48-0.744,3.289-2.057l4.695-7.623  c0.589-0.956,2.208-1.86,3.331-1.86h20.664c2.898,0,5.257-2.358,5.257-5.256V5.256C74,2.358,71.642,0,68.744,0z M70.058,45.772  c0,0.712-0.603,1.313-1.314,1.313H48.08c-2.5,0-5.375,1.605-6.688,3.735l-4.593,7.457l-3.742-7.212  c-1.177-2.27-3.992-3.98-6.548-3.98H5.256c-0.712,0-1.314-0.602-1.314-1.313V5.256c0-0.712,0.602-1.314,1.314-1.314h63.487  c0.712,0,1.314,0.602,1.314,1.314V45.772z M57.4,16.2H16.6c-0.545,0-0.986-0.441-0.986-0.986s0.441-0.985,0.986-0.985h40.8  c0.545,0,0.986,0.441,0.986,0.985S57.945,16.2,57.4,16.2 M57.4,26.485H16.6c-0.545,0-0.986-0.441-0.986-0.986  s0.441-0.985,0.986-0.985h40.8c0.545,0,0.986,0.441,0.986,0.985S57.945,26.485,57.4,26.485 M53.972,36.771H20.029  c-0.544,0-0.985-0.441-0.985-0.985c0-0.544,0.441-0.986,0.985-0.986h33.943c0.544,0,0.985,0.441,0.985,0.986  C54.958,36.33,54.516,36.771,53.972,36.771" fill="#2378cd"/>
</svg>
