<svg xmlns="http://www.w3.org/2000/svg" viewBox="0 0 70 49.206">
  <path d="M36.947,0C23.381,0,12.345,11.037,12.345,24.603c0,13.565,11.037,24.603,24.603,24.603  c13.566,0,24.603-11.037,24.603-24.603C61.55,11.037,50.514,0,36.947,0 M36.947,45.302c-11.414,0-20.699-9.286-20.699-20.699  c0-11.414,9.285-20.699,20.699-20.699c11.413,0,20.699,9.285,20.699,20.699C57.646,36.016,48.36,45.302,36.947,45.302 M36.947,8.896  c-8.661,0-15.706,7.046-15.706,15.706c0,8.661,7.045,15.707,15.706,15.707c8.66,0,15.706-7.046,15.706-15.707  C52.653,15.943,45.607,8.896,36.947,8.896 M36.947,38.357c-7.584,0-13.754-6.17-13.754-13.754c0-7.584,6.17-13.754,13.754-13.754  s13.754,6.17,13.754,13.754C50.701,32.187,44.531,38.357,36.947,38.357 M10.401,1.902c0.539,0,0.976,0.437,0.976,0.976v8.851  c0,2.803-2.04,5.134-4.712,5.599v29c0,0.539-0.437,0.976-0.976,0.976c-0.54,0-0.976-0.437-0.976-0.976v-29  C2.04,16.863,0,14.532,0,11.729V2.878c0-0.539,0.437-0.976,0.976-0.976c0.54,0,0.976,0.437,0.976,0.976v8.851  c0,1.722,1.173,3.172,2.761,3.603V2.878c0-0.539,0.437-0.976,0.976-0.976c0.539,0,0.976,0.437,0.976,0.976v12.454  c1.588-0.431,2.76-1.881,2.76-3.603V2.878C9.425,2.339,9.862,1.902,10.401,1.902 M69.889,2.436C69.957,2.569,70,2.718,70,2.878  v43.45c0,0.539-0.438,0.976-0.977,0.976s-0.976-0.437-0.976-0.976V29.731c-0.02,0-0.039,0.003-0.059,0.003  c-1.078,0-1.952-0.874-1.952-1.952V2.878c0-1.078,0.874-1.952,1.952-1.952C68.915,0.926,69.688,1.571,69.889,2.436" fill="#2378cd"/>
</svg>
